<svg width="296" height="255" viewBox="0 0 296 255" fill="none" xmlns="http://www.w3.org/2000/svg">
<ellipse cx="197.5" cy="154.095" rx="98.5" ry="98" fill="#991871"/>
<ellipse cx="73.5" cy="175.095" rx="45.5" ry="45" fill="#FADEF1"/>
<ellipse cx="73.5" cy="73.0947" rx="73.5" ry="73" fill="#88C8D4"/>
<path d="M191.6 220V201.1C183.76 198.58 177.18 194.1 171.86 187.66C166.54 181.22 163.46 173.8 162.62 165.4H179.42C180.54 171.42 183.375 176.425 187.925 180.415C192.475 184.405 197.9 186.4 204.2 186.4H229.4C232.9 186.4 235.875 187.625 238.325 190.075C240.775 192.525 242 195.5 242 199V220H191.6ZM216.8 178C212.18 178 208.225 176.355 204.935 173.065C201.645 169.775 200 165.82 200 161.2C200 156.58 201.645 152.625 204.935 149.335C208.225 146.045 212.18 144.4 216.8 144.4C221.42 144.4 225.375 146.045 228.665 149.335C231.955 152.625 233.6 156.58 233.6 161.2C233.6 165.82 231.955 169.775 228.665 173.065C225.375 176.355 221.42 178 216.8 178ZM132.8 152.8C132.8 131.8 140.15 113.95 154.85 99.25C169.55 84.55 187.4 77.2 208.4 77.2V94C192.02 94 178.125 99.705 166.715 111.115C155.305 122.525 149.6 136.42 149.6 152.8H132.8ZM166.4 152.8C166.4 141.18 170.495 131.275 178.685 123.085C186.875 114.895 196.78 110.8 208.4 110.8V127.6C201.4 127.6 195.45 130.05 190.55 134.95C185.65 139.85 183.2 145.8 183.2 152.8H166.4ZM74 127.6V106.6C74 103.1 75.225 100.125 77.675 97.675C80.125 95.225 83.1 94 86.6 94H111.8C118.1 94 123.525 92.005 128.075 88.015C132.625 84.025 135.46 79.02 136.58 73H153.38C152.54 81.4 149.46 88.82 144.14 95.26C138.82 101.7 132.24 106.18 124.4 108.7V127.6H74ZM99.2 85.6C94.58 85.6 90.625 83.955 87.335 80.665C84.045 77.375 82.4 73.42 82.4 68.8C82.4 64.18 84.045 60.225 87.335 56.935C90.625 53.645 94.58 52 99.2 52C103.82 52 107.775 53.645 111.065 56.935C114.355 60.225 116 64.18 116 68.8C116 73.42 114.355 77.375 111.065 80.665C107.775 83.955 103.82 85.6 99.2 85.6Z" fill="#ECFCFF"/>
<circle cx="117" cy="224.095" r="30" fill="#C5F0F8"/>
</svg>
