<svg width="35" height="35" viewBox="0 0 35 35" fill="none" xmlns="http://www.w3.org/2000/svg">
<path d="M17.5 22.6137C18.9205 22.6137 20.1278 22.1165 21.1222 21.1222C22.1165 20.1279 22.6136 18.9205 22.6136 17.5C22.6136 16.0796 22.1165 14.8722 21.1222 13.8779C20.1278 12.8835 18.9205 12.3864 17.5 12.3864C16.0795 12.3864 14.8722 12.8835 13.8778 13.8779C12.8835 14.8722 12.3864 16.0796 12.3864 17.5C12.3864 18.9205 12.8835 20.1279 13.8778 21.1222C14.8722 22.1165 16.0795 22.6137 17.5 22.6137ZM17.5 20.5682C16.6477 20.5682 15.9233 20.2699 15.3267 19.6733C14.7301 19.0767 14.4318 18.3523 14.4318 17.5C14.4318 16.6478 14.7301 15.9233 15.3267 15.3267C15.9233 14.7301 16.6477 14.4318 17.5 14.4318C18.3523 14.4318 19.0767 14.7301 19.6733 15.3267C20.2699 15.9233 20.5682 16.6478 20.5682 17.5C20.5682 18.3523 20.2699 19.0767 19.6733 19.6733C19.0767 20.2699 18.3523 20.5682 17.5 20.5682ZM17.5 26.0228C14.7348 26.0228 12.2159 25.251 9.94318 23.7074C7.67045 22.1638 6.02273 20.0947 5 17.5C6.02273 14.9053 7.67045 12.8362 9.94318 11.2926C12.2159 9.74908 14.7348 8.97729 17.5 8.97729C20.2652 8.97729 22.7841 9.74908 25.0568 11.2926C27.3295 12.8362 28.9773 14.9053 30 17.5C28.9773 20.0947 27.3295 22.1638 25.0568 23.7074C22.7841 25.251 20.2652 26.0228 17.5 26.0228ZM17.5 23.75C19.6402 23.75 21.6051 23.1866 23.3949 22.0597C25.1847 20.9328 26.553 19.4129 27.5 17.5C26.553 15.5871 25.1847 14.0673 23.3949 12.9404C21.6051 11.8135 19.6402 11.25 17.5 11.25C15.3598 11.25 13.3949 11.8135 11.6051 12.9404C9.81534 14.0673 8.44697 15.5871 7.5 17.5C8.44697 19.4129 9.81534 20.9328 11.6051 22.0597C13.3949 23.1866 15.3598 23.75 17.5 23.75Z" fill="#959595"/>
</svg>
