<svg width="35" height="34" viewBox="0 0 35 34" fill="none" xmlns="http://www.w3.org/2000/svg">
<path d="M22.1591 18.6485L20.5114 17.0123C20.6818 16.1284 20.4261 15.3009 19.7443 14.5298C19.0625 13.7587 18.1818 13.4578 17.1023 13.627L15.4545 11.9908C15.7765 11.8404 16.1032 11.7275 16.4347 11.6523C16.7661 11.5771 17.1212 11.5394 17.5 11.5394C18.9205 11.5394 20.1278 12.0331 21.1222 13.0205C22.1165 14.0079 22.6136 15.2068 22.6136 16.6174C22.6136 16.9935 22.5758 17.3461 22.5 17.6753C22.4242 18.0044 22.3106 18.3288 22.1591 18.6485ZM25.7955 22.2031L24.1477 20.6233C24.8674 20.0779 25.5066 19.4807 26.0653 18.8319C26.6241 18.1831 27.1023 17.4449 27.5 16.6174C26.553 14.7178 25.1941 13.2086 23.4233 12.0896C21.6525 10.9705 19.678 10.411 17.5 10.411C16.9508 10.411 16.411 10.4486 15.8807 10.5239C15.3504 10.5991 14.8295 10.7119 14.3182 10.8624L12.5568 9.11332C13.3333 8.7936 14.1288 8.55381 14.9432 8.39395C15.7576 8.23409 16.6098 8.15416 17.5 8.15416C20.3598 8.15416 22.9072 8.93936 25.142 10.5098C27.3769 12.0801 28.9962 14.116 30 16.6174C29.5644 17.727 28.9915 18.7567 28.2813 19.7064C27.571 20.6562 26.7424 21.4884 25.7955 22.2031ZM26.3636 29.1429L21.5909 24.4599C20.928 24.6668 20.2604 24.822 19.5881 24.9254C18.9157 25.0289 18.2197 25.0806 17.5 25.0806C14.6402 25.0806 12.0928 24.2954 9.85795 22.725C7.62311 21.1546 6.00379 19.1187 5 16.6174C5.39773 15.6206 5.89962 14.6943 6.50568 13.8386C7.11174 12.9829 7.80303 12.2165 8.57955 11.5394L5.45455 8.37985L7.04545 6.80005L27.9545 27.5631L26.3636 29.1429ZM10.1705 13.1192C9.62121 13.6082 9.11932 14.1442 8.66477 14.7273C8.21023 15.3103 7.82197 15.9403 7.5 16.6174C8.44697 18.5169 9.80587 20.0262 11.5767 21.1452C13.3475 22.2642 15.322 22.8237 17.5 22.8237C17.8788 22.8237 18.2481 22.8002 18.608 22.7532C18.9678 22.7062 19.3371 22.6545 19.7159 22.598L18.6932 21.526C18.4848 21.5824 18.286 21.6248 18.0966 21.653C17.9072 21.6812 17.7083 21.6953 17.5 21.6953C16.0795 21.6953 14.8722 21.2016 13.8778 20.2142C12.8835 19.2269 12.3864 18.0279 12.3864 16.6174C12.3864 16.4105 12.4006 16.213 12.429 16.0249C12.4574 15.8369 12.5 15.6394 12.5568 15.4325L10.1705 13.1192Z" fill="#959595"/>
</svg>
